<?xml version="1.0" standalone="no"?>
<!DOCTYPE svg PUBLIC "-//W3C//DTD SVG 20010904//EN"
 "http://www.w3.org/TR/2001/REC-SVG-20010904/DTD/svg10.dtd">
<svg version="1.0" xmlns="http://www.w3.org/2000/svg"
 width="896.000000pt" height="896.000000pt" viewBox="0 0 896.000000 896.000000"
 preserveAspectRatio="xMidYMid meet">
<metadata>
Created by potrace 1.11, written by Peter Selinger 2001-2013
</metadata>
<g transform="translate(0.000000,896.000000) scale(0.100000,-0.100000)"
fill="#000000" stroke="none">
<path d="M1547 8844 c-384 -69 -713 -352 -838 -720 -63 -186 -59 71 -59 -3644
0 -3022 2 -3397 16 -3470 76 -404 350 -721 735 -850 171 -58 -75 -54 3294 -57
3423 -4 3175 -8 3315 60 83 41 194 150 237 232 69 132 63 -231 63 4091 0 4293
5 3949 -61 4082 -35 72 -120 164 -194 211 -28 18 -85 43 -128 56 l-78 25
-3112 -1 c-2639 -1 -3124 -3 -3190 -15z"/>
</g>
</svg>
